<svg width="40" height="40" viewBox="0 0 40 40" fill="none" xmlns="http://www.w3.org/2000/svg">
<circle cx="20" cy="20" r="20" fill="#CE1C30"/>
<path d="M18.8258 15.3922C17.6041 15.3922 16.2682 15.5044 14.9488 15.7288C16.2846 14.0139 18.4023 12.9079 20.7643 12.9079C22.5074 12.9079 24.2504 13.5651 25.4233 14.5428C25.6351 14.7191 25.798 14.7351 25.9609 14.5748C26.1238 14.4145 26.1075 14.2543 25.9283 14.0459C24.397 12.2668 22.149 11.0647 19.4937 11.1128C16.0239 11.1769 13.0754 13.3727 11.9514 16.418C10.9251 16.7386 9.98029 17.1232 9.14949 17.588C8.92144 17.7163 8.83997 17.8766 8.92144 18.0689C9.00286 18.2452 9.1658 18.3093 9.39385 18.2452C10.1106 18.0368 10.8436 17.8605 11.6093 17.7002C11.5279 18.1009 11.479 18.5176 11.479 18.9504C11.4138 21.7553 12.9125 24.4159 15.2257 25.8744C15.4538 26.0186 15.6492 26.0186 15.7796 25.8424C15.9099 25.666 15.8936 25.5058 15.6981 25.3294C14.232 24.0152 13.4175 22.0598 13.4175 20.1204C13.4175 19.1427 13.613 18.1971 13.9876 17.3476C14.7533 17.2835 15.5841 17.2354 16.4963 17.2354C22.4259 17.2354 27.427 19.1908 27.427 21.7553C27.427 23.0535 25.7817 24.3517 23.8269 25.2173C23.3545 25.4256 23.3056 25.5699 23.3708 25.7782C23.4359 25.9706 23.6477 26.0347 23.892 25.9545C27.313 24.8326 29.9031 22.9894 29.9031 20.7616C29.9031 17.7323 25.0161 15.3922 18.8258 15.3922Z" fill="white"/>
<path d="M21.6583 30.7999V24.31C21.6583 24.0613 21.4182 23.9706 21.2202 24.0834L19.5703 25.0329V31.1129L21.3426 31.1152C21.5169 31.1154 21.6583 30.9742 21.6583 30.7999Z" fill="white"/>
<path d="M17.5625 26.424V30.9119C17.5625 31.0242 17.6536 31.1152 17.7659 31.1152H19.0143V25.3527L17.768 26.0703C17.641 26.1427 17.5625 26.2568 17.5625 26.424Z" fill="white"/>
</svg>
