<svg width="40" height="40" viewBox="0 0 40 40" fill="none" xmlns="http://www.w3.org/2000/svg">
<circle cx="20" cy="20" r="20" fill="#EC7000"/>
<path fill-rule="evenodd" clip-rule="evenodd" d="M12.6643 9H27.3357C28.3567 9 29.2098 9.36399 29.9093 10.0643C30.6363 10.7785 31 11.6468 31 12.669V27.3449C31 28.3532 30.6362 29.2214 29.9093 29.9357C29.2098 30.6357 28.3567 31 27.3357 31H12.6643C11.6433 31 10.7762 30.6357 10.063 29.9357C9.36353 29.2214 9 28.3532 9 27.3449V12.669C9 11.6468 9.36353 10.7785 10.063 10.0643C10.7762 9.36399 11.6433 9 12.6643 9Z" fill="#33348E"/>
<path fill-rule="evenodd" clip-rule="evenodd" d="M25.7861 21.4828H26.9759L28.4458 20H26.8358L25.7861 21.4828ZM25.3519 21.8603H23.6441V25.0349C23.6441 25.888 23.868 26.5174 24.2741 26.937C24.6523 27.3008 25.128 27.4684 25.744 27.4684C26.5979 27.4684 27.2279 27.1328 27.6199 26.4757H27.6339V27.3427H29.1456V21.8604H27.4378V25.0633C27.4378 25.203 27.4238 25.3289 27.3959 25.3989C27.1998 25.8604 26.8639 26.112 26.3459 26.112C25.6881 26.112 25.3519 25.6505 25.3519 24.7414V21.8603ZM20.9704 23.6782C19.8505 23.6782 18.9965 23.8461 18.4086 24.2096C17.8065 24.5735 17.4846 25.1187 17.4846 25.8182C17.4846 26.2517 17.6665 26.643 17.9746 26.9647C18.3385 27.3006 18.8005 27.4683 19.3605 27.4683C20.1165 27.4683 20.6764 27.2306 21.0684 26.7692H21.1104V27.3424H22.6783V24.1117C22.6783 23.3847 22.4823 22.8251 22.1184 22.4195C21.6702 21.9581 21.0123 21.7065 20.1445 21.7065C19.2485 21.7065 18.4926 21.8741 17.9045 22.2379L18.2265 23.3148C18.7024 23.021 19.2485 22.8813 19.8504 22.8813C20.6062 22.8813 20.9702 23.1189 20.9702 23.6225V23.6782H20.9704ZM16.8125 21.8603H15.7625V20H14.1108V21.8601H13.3268V23.1188H14.1108V25.3284C14.1108 26.0836 14.2508 26.643 14.5729 26.9646C14.8808 27.3005 15.3427 27.4681 15.9028 27.4681C16.2668 27.4681 16.5608 27.4262 16.8268 27.3284L16.8128 26.0418C16.7569 26.0837 16.6588 26.1115 16.4909 26.1115C16.2249 26.1115 16.0288 26.0136 15.903 25.818C15.8049 25.678 15.763 25.4264 15.763 25.0629V23.1189H16.8129V21.8603H16.8125ZM19.0664 25.6781C19.0664 25.021 19.7244 24.7271 21.0122 24.7411V25.3286L20.9982 25.6502C20.9281 25.8601 20.7743 26.0418 20.5782 26.1537C20.3822 26.3214 20.1443 26.4053 19.8783 26.4053C19.3463 26.4055 19.0664 26.1539 19.0664 25.6781ZM10.793 20V27.3425H12.5289V20H10.793Z" fill="#FFF22D"/>
</svg>
